<svg xmlns="http://www.w3.org/2000/svg" viewBox="0 0 800 600" role="img" aria-labelledby="title desc">
  <title id="title">Jungle path with sleeping panther</title>
  <desc id="desc">A dense jungle path with huge leaves, vines, a diary page, and an old stone trail leading toward a temple.</desc>
  <rect width="800" height="600" fill="#69b9a8"/>
  <path d="M0 0 H800 V600 H0 Z" fill="#256d55"/>
  <path d="M0 120 C94 76 154 132 244 90 C354 38 432 112 512 70 C632 8 704 88 800 42 L800 600 L0 600 Z" fill="#3d9368"/>
  <path d="M0 262 C120 196 226 246 332 184 C460 108 562 218 800 130 L800 600 L0 600 Z" fill="#1f684f"/>
  <path d="M0 394 C116 338 256 392 380 334 C494 282 634 340 800 286 L800 600 L0 600 Z" fill="#174f42"/>
  <path d="M16 515 C150 430 320 452 466 420 C574 396 670 392 800 348 L800 600 L0 600 Z" fill="#c0a762"/>
  <path d="M0 500 C138 540 298 494 430 526 C560 558 674 512 800 532 L800 600 L0 600 Z" fill="#4d7a4d"/>
  <path d="M126 96 C150 190 118 250 78 338" fill="none" stroke="#6b4b28" stroke-width="16" stroke-linecap="round"/>
  <path d="M665 54 C628 154 670 250 738 356" fill="none" stroke="#6b4b28" stroke-width="18" stroke-linecap="round"/>
  <path d="M58 202 C112 142 172 134 230 196 C160 206 110 230 58 202 Z" fill="#59b66b"/>
  <path d="M530 206 C594 132 674 136 738 208 C646 208 596 232 530 206 Z" fill="#5fbd75"/>
  <path d="M350 93 C382 168 360 232 304 292 C294 210 300 144 350 93 Z" fill="#63bf73"/>
  <path d="M202 398 L280 372 L340 404 L296 438 Z" fill="#e8d79a" stroke="#856b3d" stroke-width="3"/>
  <path d="M220 410 C246 398 278 398 306 414" fill="none" stroke="#a24d36" stroke-width="4" stroke-linecap="round"/>
  <path d="M446 416 C492 384 566 386 616 418 C594 448 480 450 446 416 Z" fill="#25272b"/>
  <circle cx="560" cy="397" r="28" fill="#2b2e31"/>
  <path d="M578 388 C616 376 640 390 656 414" fill="none" stroke="#25272b" stroke-width="10" stroke-linecap="round"/>
  <path d="M476 400 L446 382 M488 394 L464 370" stroke="#25272b" stroke-width="8" stroke-linecap="round"/>
  <path d="M595 389 L616 375 L608 400 Z" fill="#2b2e31"/>
  <path d="M292 524 C396 462 524 454 698 506" fill="none" stroke="#dcc873" stroke-width="34" stroke-linecap="round"/>
  <path d="M730 322 L768 244 L806 322 Z" fill="#8b7645"/>
  <rect x="745" y="322" width="32" height="38" fill="#665a3b"/>
</svg>
