<svg xmlns="http://www.w3.org/2000/svg" width="768" height="660" viewBox="0 0 768 660"><defs><linearGradient id="coat" x1="0" y1="0" x2="1" y2="1"><stop offset="0" stop-color="#f8fbf5"/><stop offset=".55" stop-color="#dbe5e3"/><stop offset="1" stop-color="#aebec1"/></linearGradient><linearGradient id="vest" x1="0" y1="0" x2="0" y2="1"><stop offset="0" stop-color="#2d8f8b"/><stop offset="1" stop-color="#135b61"/></linearGradient><linearGradient id="pants" x1="0" y1="0" x2="0" y2="1"><stop offset="0" stop-color="#b88b52"/><stop offset="1" stop-color="#76532d"/></linearGradient><style>.arm{fill:none;stroke:url(#coat);stroke-width:18;stroke-linecap:round;stroke-linejoin:round}.skin{fill:#f0b77d;stroke:#8d5a36;stroke-width:2}.finger{fill:none;stroke:#f0b77d;stroke-width:5;stroke-linecap:round}</style><g id="base"><path d="M72 143L66 196H90L96 145zM120 143l6 53h-24l-6-51z" fill="url(#pants)" stroke="#4a321f" stroke-width="3"/><path d="M62 194h31q4 10-8 13H55q-7-7 7-13zM99 194h31q14 6 7 13h-30q-12-3-8-13z" fill="#593718" stroke="#2d1c10" stroke-width="3"/><path d="M62 79Q96 67 130 79l-7 76H69z" fill="url(#coat)" stroke="#65777a" stroke-width="3"/><path d="M78 79h36l7 67H71z" fill="url(#vest)" stroke="#0e4247" stroke-width="2"/><path d="M83 77l13 17 13-17" fill="#eef5f1" stroke="#829293" stroke-width="2"/><path d="M96 94v48" stroke="#e0a83e" stroke-width="4"/><circle cx="87" cy="108" r="2.5" fill="#d7d8cc"/><circle cx="105" cy="108" r="2.5" fill="#d7d8cc"/><rect x="87" y="61" width="18" height="21" rx="8" fill="#eeb077" stroke="#8d5a36" stroke-width="2"/><ellipse cx="96" cy="43" rx="34" ry="36" fill="#f1b57b" stroke="#8d5a36" stroke-width="3"/><g fill="#747b82" stroke="#3e454b" stroke-width="2"><circle cx="68" cy="25" r="12"/><circle cx="76" cy="12" r="12"/><circle cx="89" cy="8" r="13"/><circle cx="103" cy="8" r="13"/><circle cx="117" cy="14" r="12"/><circle cx="125" cy="27" r="11"/><circle cx="67" cy="39" r="9"/><circle cx="126" cy="40" r="9"/></g><circle cx="62" cy="44" r="7" class="skin"/><circle cx="130" cy="44" r="7" class="skin"/><g fill="#dff7f2" fill-opacity=".35" stroke="#28363d" stroke-width="3"><circle cx="82" cy="42" r="12"/><circle cx="110" cy="42" r="12"/><path d="M94 42h4"/></g><circle cx="82" cy="43" r="2.7" fill="#25363a"/><circle cx="110" cy="43" r="2.7" fill="#25363a"/><path d="M91 56q5 5 10 0" fill="none" stroke="#8d4e34" stroke-width="2" stroke-linecap="round"/><rect x="111" y="92" width="12" height="16" rx="3" fill="#173f49" stroke="#d39e3e" stroke-width="2"/><circle cx="117" cy="97" r="2.5" fill="#5af2d9"/></g><g id="clipboard"><rect x="95" y="113" width="42" height="58" rx="5" fill="#5f4630" stroke="#2e2119" stroke-width="3"/><rect x="100" y="119" width="32" height="46" rx="3" fill="#e7dfc7"/><path d="M106 130h20M106 139h20M106 148h16" stroke="#66817c" stroke-width="2"/><rect x="109" y="110" width="15" height="8" rx="3" fill="#c79b48"/></g></defs><g transform="translate(0 0)"><use href="#base"/><path d="M66 94Q54 70 67 54" class="arm"/><circle cx="69" cy="50" r="8" class="skin"/><path d="M126 94Q134 117 122 138" class="arm"/><circle cx="122" cy="140" r="7" class="skin"/><use href="#clipboard"/></g><g transform="translate(192 0)"><use href="#base"/><path d="M66 94Q52 120 54 151" class="arm"/><circle cx="54" cy="154" r="8" class="skin"/><path d="M126 94Q134 117 122 138" class="arm"/><circle cx="122" cy="140" r="7" class="skin"/><use href="#clipboard"/></g><g transform="translate(384 0)"><use href="#base"/><path d="M66 94Q52 120 54 151" class="arm"/><circle cx="54" cy="154" r="8" class="skin"/><path d="M126 94Q135 72 116 59" class="arm"/><circle cx="113" cy="56" r="8" class="skin"/><use href="#clipboard"/></g><g transform="translate(576 0)"><use href="#base"/><path d="M66 94Q52 120 54 151" class="arm"/><circle cx="54" cy="154" r="8" class="skin"/><path d="M126 94Q134 117 122 138" class="arm"/><circle cx="122" cy="140" r="7" class="skin"/><use href="#clipboard"/></g><g transform="translate(0 220)"><use href="#base"/><path d="M66 94Q48 73 43 48" class="arm"/><circle cx="42" cy="44" r="8" class="skin"/><path d="M126 94Q134 117 122 138" class="arm"/><circle cx="122" cy="140" r="7" class="skin"/><use href="#clipboard"/></g><g transform="translate(192 220)"><use href="#base"/><path d="M66 94Q42 108 26 126" class="arm"/><circle cx="22" cy="130" r="8" class="skin"/><path d="M126 94Q134 117 122 138" class="arm"/><circle cx="122" cy="140" r="7" class="skin"/><use href="#clipboard"/></g><g transform="translate(384 220)"><use href="#base"/><path d="M66 94Q48 73 43 48" class="arm"/><circle cx="42" cy="44" r="8" class="skin"/><path d="M126 94Q150 108 166 126" class="arm"/><circle cx="170" cy="130" r="8" class="skin"/></g><g transform="translate(576 220)"><use href="#base"/><path d="M66 94Q42 108 26 126" class="arm"/><circle cx="22" cy="130" r="8" class="skin"/><path d="M126 94Q140 120 138 151" class="arm"/><circle cx="138" cy="154" r="8" class="skin"/><use href="#clipboard"/></g><g transform="translate(0 440)"><use href="#base"/><path d="M66 94Q42 88 20 85" class="arm"/><path d="M20 85L4 81" class="finger"/><circle cx="19" cy="85" r="7" class="skin"/><path d="M126 94Q134 117 122 138" class="arm"/><circle cx="122" cy="140" r="7" class="skin"/><use href="#clipboard"/></g><g transform="translate(192 440)"><use href="#base"/><path d="M66 94Q52 120 54 151" class="arm"/><circle cx="54" cy="154" r="8" class="skin"/><path d="M126 94Q150 88 172 85" class="arm"/><path d="M172 85L188 81" class="finger"/><circle cx="173" cy="85" r="7" class="skin"/><use href="#clipboard"/></g><g transform="translate(384 440)"><use href="#base"/><path d="M66 94Q52 120 54 151" class="arm"/><circle cx="54" cy="154" r="8" class="skin"/><path d="M126 94Q144 73 149 48" class="arm"/><circle cx="150" cy="44" r="8" class="skin"/><use href="#clipboard"/></g><g transform="translate(576 440)"><use href="#base"/><path d="M66 94Q42 108 26 126" class="arm"/><circle cx="22" cy="130" r="8" class="skin"/><path d="M126 94Q150 108 166 126" class="arm"/><circle cx="170" cy="130" r="8" class="skin"/><use href="#clipboard"/></g></svg>