<svg xmlns="http://www.w3.org/2000/svg" width="1536" height="1024" viewBox="0 0 1536 1024">
  <defs>
    <linearGradient id="paper" x1="0" y1="0" x2="0" y2="1"><stop offset="0" stop-color="#faf5e6"/><stop offset="1" stop-color="#efe3c8"/></linearGradient>
    <linearGradient id="metal" x1="0" y1="0" x2="1" y2="1"><stop offset="0" stop-color="#6c7780"/><stop offset=".45" stop-color="#263039"/><stop offset="1" stop-color="#11171d"/></linearGradient>
    <linearGradient id="navy" x1="0" y1="0" x2="1" y2="1"><stop offset="0" stop-color="#284b6c"/><stop offset=".55" stop-color="#142d49"/><stop offset="1" stop-color="#091522"/></linearGradient>
    <linearGradient id="redLens" x1="0" y1="0" x2="1" y2="1"><stop offset="0" stop-color="#ff8d79" stop-opacity=".95"/><stop offset="1" stop-color="#8e182e" stop-opacity=".95"/></linearGradient>
    <filter id="glow" x="-40%" y="-40%" width="180%" height="180%"><feGaussianBlur stdDeviation="5" result="b"/><feMerge><feMergeNode in="b"/><feMergeNode in="SourceGraphic"/></feMerge></filter>
    <pattern id="grain" width="18" height="18" patternUnits="userSpaceOnUse"><circle cx="3" cy="5" r="1" fill="#8e6f44" opacity=".08"/><circle cx="14" cy="12" r=".8" fill="#8e6f44" opacity=".07"/></pattern>
  </defs>
  <rect width="1536" height="1024" fill="url(#paper)"/><rect width="1536" height="1024" fill="url(#grain)"/>
  <g transform="translate(192 256)"><rect x="-54" y="-176" width="108" height="112" rx="27" fill="url(#metal)" stroke="#171d22" stroke-width="8"/><rect x="-54" y="64" width="108" height="112" rx="27" fill="url(#metal)" stroke="#171d22" stroke-width="8"/><g stroke="#89949c" stroke-width="5"><path d="M-36-150h72M-36-120h72M-36-90h72"/><path d="M-36 92h72M-36 122h72M-36 152h72"/></g><circle r="118" fill="#202b32" stroke="#c89a36" stroke-width="12"/><circle r="94" fill="#073d49" stroke="#56ead7" stroke-width="8" filter="url(#glow)"/><g fill="none" stroke="#79f6e5"><circle r="72" stroke-width="4"/><circle r="52" stroke-width="3"/><circle r="31" stroke-width="2"/></g><path d="M0 0l43-37M0 0l-9 51" stroke="#dcfff7" stroke-width="8" stroke-linecap="round"/><circle r="11" fill="#f5c64d"/><rect x="112" y="-29" width="26" height="58" rx="8" fill="#c89a36" stroke="#6d4b18" stroke-width="4"/></g>
  <g transform="translate(576 256)"><path d="M-130-18l-72-43M130-18l72-43" fill="none" stroke="#242b31" stroke-width="18" stroke-linecap="round"/><circle cx="-78" cy="0" r="76" fill="url(#redLens)" stroke="#23292f" stroke-width="14"/><circle cx="78" cy="0" r="76" fill="url(#redLens)" stroke="#23292f" stroke-width="14"/><path d="M-2 0h4" stroke="#23292f" stroke-width="16"/><g stroke="#ffd0c7" opacity=".55" stroke-width="3"><path d="M-120-36h84M-120 0h84M-120 36h84M-96-60v120M-60-60v120"/><path d="M36-36h84M36 0h84M36 36h84M60-60v120M96-60v120"/></g><path d="M-116-42a58 58 0 0 1 74-10M40-42a58 58 0 0 1 74-10" fill="none" stroke="#fff1dc" stroke-width="8" opacity=".8"/><rect x="-19" y="70" width="38" height="28" rx="7" fill="#164f58" stroke="#56ead7" stroke-width="4"/></g>
  <g transform="translate(960 256)"><path d="M-50-178l-88 55-30 147 42 42 24 126h204l24-126 42-42-30-147-88-55L0-92z" fill="url(#navy)" stroke="#07111b" stroke-width="10" stroke-linejoin="round"/><path d="M-132-117l-82 155 42 33 73-82M132-117l82 155-42 33-73-82" fill="#10253b" stroke="#07111b" stroke-width="9" stroke-linejoin="round"/><path d="M0-92v276M-50-178L0-92l50-86" fill="none" stroke="#55e4d5" stroke-width="8"/><g fill="#36cbbb" stroke="#c1fff5" stroke-width="3"><circle cx="-93" cy="-112" r="13"/><circle cx="93" cy="-112" r="13"/></g><path d="M-88 43h61M27 43h61" stroke="#55e4d5" stroke-width="6"/><rect x="48" y="-28" width="48" height="44" rx="8" fill="#0b4a54" stroke="#c89a36" stroke-width="4"/><path d="M-100 90h70M30 90h70" stroke="#61788c" stroke-width="5"/></g>
  <g transform="translate(1344 256)"><rect x="-154" y="-188" width="308" height="376" rx="20" fill="#4b2d1b" stroke="#24160f" stroke-width="10"/><rect x="-135" y="-169" width="270" height="338" rx="11" fill="#15545a" stroke="#59ddcf" stroke-width="7"/><g fill="#eee6cc" stroke="#416866" stroke-width="4"><rect x="-108" y="-132" width="96" height="82" rx="7"/><rect x="13" y="-132" width="95" height="82" rx="7" fill="#a6d9d3"/><rect x="-108" y="-23" width="96" height="103" rx="7"/><rect x="13" y="-23" width="95" height="103" rx="7" fill="#a6d9d3"/></g><g stroke="#6f8a82" stroke-width="4" opacity=".8"><path d="M-91-108h62M-91-91h62M-91-74h46"/><path d="M30-108h61M30-91h61"/><path d="M-91 2h62M-91 19h62M-91 36h45"/><path d="M30 2h61M30 19h61M30 36h45"/></g><path d="M-109-143L34-34L13-143L-109-34" fill="none" stroke="#ea623b" stroke-width="5"/><g fill="#ef6a3f" stroke="#7a2d1a" stroke-width="3"><circle cx="-109" cy="-143" r="9"/><circle cx="13" cy="-143" r="9"/><circle cx="-109" cy="-34" r="9"/><circle cx="13" cy="-34" r="9"/></g></g>
  <g transform="translate(192 768)"><ellipse cx="0" cy="72" rx="177" ry="47" fill="#242d35" stroke="#11171d" stroke-width="9"/><rect x="-112" y="-122" width="224" height="181" rx="72" fill="#39434b" stroke="#171d22" stroke-width="9"/><path d="M-112 18h224v49h-224z" fill="#0c6f73"/><path d="M-101 65h202" stroke="#56ead7" stroke-width="6"/><path d="M-73-86a104 88 0 0 1 146 45" fill="none" stroke="#7e8990" stroke-width="7" opacity=".7"/></g>
  <g transform="translate(576 768)"><g transform="translate(-72 0)"><rect x="-53" y="-154" width="101" height="214" rx="24" fill="#202934" stroke="#0d1218" stroke-width="9"/><path d="M-53 18h101l50 80-17 31H-49z" fill="#17202a" stroke="#0d1218" stroke-width="9"/><path d="M-40-72h75M-40-34h75M-40 4h75" stroke="#60717f" stroke-width="5"/><path d="M-42-104h77" stroke="#4bd9ca" stroke-width="6"/><rect x="-55" y="112" width="145" height="29" rx="9" fill="#0d1218"/></g><g transform="translate(72 0)"><rect x="-53" y="-154" width="101" height="214" rx="24" fill="#202934" stroke="#0d1218" stroke-width="9"/><path d="M-53 18h101l50 80-17 31H-49z" fill="#17202a" stroke="#0d1218" stroke-width="9"/><path d="M-40-72h75M-40-34h75M-40 4h75" stroke="#60717f" stroke-width="5"/><path d="M-42-104h77" stroke="#4bd9ca" stroke-width="6"/><rect x="-55" y="112" width="145" height="29" rx="9" fill="#0d1218"/></g></g>
  <g transform="translate(960 768)"><path d="M-191 14c16-79 85-117 191-117S175-65 191 14v95H-191z" fill="url(#navy)" stroke="#08121c" stroke-width="11"/><path d="M-113-88l65-75H65l75 75z" fill="#2b526b" stroke="#08121c" stroke-width="9"/><path d="M-91-78l50-60h41v60zM20-138h37l57 60H20z" fill="#83c9c9" stroke="#1b5360" stroke-width="6"/><path d="M-168 25h336" stroke="#4de0d0" stroke-width="7"/><rect x="-193" y="6" width="43" height="30" rx="8" fill="#f2d169"/><rect x="150" y="6" width="43" height="30" rx="8" fill="#f2d169"/><g><circle cx="-127" cy="112" r="50" fill="#10161c" stroke="#6f7b83" stroke-width="8"/><circle cx="-127" cy="112" r="23" fill="#bd8b2c"/></g><g><circle cx="127" cy="112" r="50" fill="#10161c" stroke="#6f7b83" stroke-width="8"/><circle cx="127" cy="112" r="23" fill="#bd8b2c"/></g></g>
  <g transform="translate(1344 768)"><rect x="-124" y="-194" width="248" height="388" rx="21" fill="#242f32" stroke="#101719" stroke-width="11"/><rect x="-99" y="-169" width="198" height="338" rx="14" fill="#0d3f46" stroke="#55ddcf" stroke-width="7"/><rect x="-73" y="-137" width="146" height="95" rx="14" fill="#092a31" stroke="#2d8991" stroke-width="5"/><rect x="-73" y="-16" width="146" height="131" rx="14" fill="#0a3038" stroke="#2d8991" stroke-width="5"/><rect x="61" y="-1" width="57" height="77" rx="10" fill="#151f23" stroke="#c89a36" stroke-width="5"/><circle cx="89" cy="24" r="14" fill="#55f3dd" filter="url(#glow)"/><rect x="-53" y="135" width="106" height="13" rx="6" fill="#4ce1d2"/><circle cx="0" cy="-177" r="19" fill="#e3a33d" stroke="#67431b" stroke-width="4"/></g>
  <g stroke="#8d6a3f" stroke-width="2" opacity=".16"><path d="M384 36v952M768 36v952M1152 36v952M36 512h1464"/></g>
</svg>
