<svg xmlns="http://www.w3.org/2000/svg" xmlns:xlink="http://www.w3.org/1999/xlink" width="1024" height="576" viewBox="0 0 1024 576">
  <defs>
    <linearGradient id="screen" x1="0" y1="0" x2="0" y2="1"><stop offset="0" stop-color="#123e49"/><stop offset="1" stop-color="#061e28"/></linearGradient>
    <linearGradient id="door" x1="0" y1="0" x2="1" y2="1"><stop offset="0" stop-color="#173d42"/><stop offset=".55" stop-color="#0a252c"/><stop offset="1" stop-color="#06171d"/></linearGradient>
    <filter id="glow" x="-30%" y="-30%" width="160%" height="160%"><feGaussianBlur stdDeviation="5" result="b"/><feMerge><feMergeNode in="b"/><feMergeNode in="SourceGraphic"/></feMerge></filter>
    <linearGradient id="wall" x1="0" y1="0" x2="0" y2="1"><stop offset="0" stop-color="#182a34"/><stop offset=".58" stop-color="#26333a"/><stop offset="1" stop-color="#3b3029"/></linearGradient>
    <linearGradient id="floor" x1="0" y1="0" x2="0" y2="1"><stop offset="0" stop-color="#8a6546"/><stop offset=".55" stop-color="#5e412e"/><stop offset="1" stop-color="#302117"/></linearGradient>
    <linearGradient id="wood" x1="0" y1="0" x2="1" y2="1"><stop offset="0" stop-color="#9b7042"/><stop offset=".45" stop-color="#68452a"/><stop offset="1" stop-color="#382419"/></linearGradient>
    <radialGradient id="lampGlow"><stop offset="0" stop-color="#ffd88a" stop-opacity=".65"/><stop offset="1" stop-color="#ffd88a" stop-opacity="0"/></radialGradient>
  </defs>
  <rect width="1024" height="576" fill="url(#wall)"/><rect y="335" width="1024" height="241" fill="url(#floor)"/>
  <g stroke="#c19a72" stroke-opacity=".18" stroke-width="2"><path d="M0 380h1024M0 430h1024M0 485h1024M0 545h1024"/><path d="M145 335L82 576M300 335L270 576M470 335L466 576M640 335L675 576M810 335L886 576"/></g>
  <rect width="1024" height="30" fill="#10191f"/><rect x="455" y="30" width="390" height="18" rx="9" fill="#d7f5ee" opacity=".95"/><ellipse cx="650" cy="52" rx="260" ry="75" fill="url(#lampGlow)"/>
  <g fill="#2b2521" stroke="#0e1012" stroke-width="3"><rect x="20" y="42" width="140" height="42" rx="8"/><rect x="170" y="42" width="140" height="42" rx="8"/><rect x="320" y="42" width="130" height="42" rx="8"/><rect x="882" y="32" width="128" height="46" rx="8"/></g>
  <g><rect x="20" y="190" width="135" height="220" rx="10" fill="#273237" stroke="#11191c" stroke-width="5"/><rect x="37" y="210" width="101" height="92" rx="12" fill="#0b343b" stroke="#57d9cc" stroke-width="4"/><path d="M70 258c10-30 38-30 47 0-9 28-37 28-47 0z" fill="#42cfc2" opacity=".75"/><path d="M90 227v63M64 258h52" stroke="#b8fff3" stroke-width="3" opacity=".7"/><rect x="48" y="326" width="80" height="54" rx="7" fill="#172126" stroke="#b78b3b" stroke-width="3"/><g fill="#5cf2dc"><circle cx="66" cy="345" r="5"/><circle cx="84" cy="345" r="5"/><circle cx="102" cy="345" r="5"/></g></g>
  <g fill="url(#wood)" stroke="#302015" stroke-width="4"><rect x="165" y="290" width="270" height="78" rx="8"/><rect x="178" y="306" width="74" height="45" rx="5"/><rect x="263" y="306" width="74" height="45" rx="5"/><rect x="348" y="306" width="74" height="45" rx="5"/></g><g stroke="#d1a85e" stroke-width="3"><path d="M209 326h12M294 326h12M379 326h12"/></g>
  <g><ellipse cx="650" cy="382" rx="250" ry="76" fill="#31231b" opacity=".55"/><ellipse cx="650" cy="357" rx="245" ry="68" fill="url(#wood)" stroke="#2a1a12" stroke-width="7"/><ellipse cx="650" cy="350" rx="208" ry="43" fill="#20383d" stroke="#c69b50" stroke-width="5"/><ellipse cx="650" cy="350" rx="168" ry="29" fill="#0c2931" stroke="#3f9ea2" stroke-width="3"/><path d="M564 393l-24 88h220l-25-88z" fill="#3a291e" stroke="#20150f" stroke-width="6"/></g>
  <g fill="#273337" stroke="#11191c" stroke-width="4"><rect x="807" y="317" width="78" height="104" rx="7"/><rect x="817" y="330" width="58" height="28" rx="4"/><rect x="817" y="365" width="58" height="28" rx="4"/></g><g stroke="#c49a4b" stroke-width="3"><path d="M838 344h16M838 379h16"/></g>
  <g><rect x="176" y="88" width="240" height="205" rx="13" fill="#3c281c" stroke="#d2a65e" stroke-width="5"/><rect x="190" y="102" width="212" height="177" rx="8" fill="#164d53" stroke="#55d5ca" stroke-width="3"/><g fill="#e7e1c8" stroke="#335f5f" stroke-width="2"><rect x="205" y="117" width="74" height="58" rx="5"/><rect x="291" y="117" width="94" height="50" rx="5" fill="#9dd8d2"/><rect x="205" y="187" width="91" height="66" rx="5"/><rect x="309" y="180" width="76" height="73" rx="5" fill="#9dd8d2"/></g><g stroke="#64847e" stroke-width="3" opacity=".75"><path d="M217 135h48M217 148h48M217 161h36"/><path d="M304 134h66M304 147h52"/><path d="M217 207h62M217 220h62M217 233h42"/><path d="M321 201h50M321 214h50M321 227h38"/></g><g fill="#ef6d3a" stroke="#7c2d1b" stroke-width="2"><circle cx="205" cy="111" r="6"/><circle cx="290" cy="111" r="6"/><circle cx="205" cy="180" r="6"/><circle cx="307" cy="174" r="6"/></g><path d="M205 111L340 174L290 111L205 180" fill="none" stroke="#e85e3b" stroke-width="3"/></g>
  <g><rect x="496" y="73" width="383" height="189" rx="17" fill="#092b36" stroke="#63e5dc" stroke-width="4"/><rect x="515" y="92" width="345" height="151" rx="10" fill="url(#screen)" stroke="#248f9a" stroke-width="2"/><g fill="#0b3d48" stroke="#55cfc8" stroke-width="2"><rect x="532" y="108" width="96" height="113" rx="9"/><rect x="640" y="108" width="103" height="113" rx="9"/><rect x="754" y="108" width="91" height="113" rx="9"/></g><g stroke="#2b8e92" stroke-width="1" opacity=".65"><path d="M542 126h76M542 148h76M542 170h76M542 192h76"/><path d="M650 126h83M650 148h83M650 170h83M650 192h83"/><path d="M764 126h71M764 148h71M764 170h71M764 192h71"/></g><g fill="none" stroke="#a8fff2" stroke-width="3"><rect x="571" y="118" width="18" height="26" rx="4"/><rect x="571" y="185" width="18" height="25" rx="4"/><circle cx="580" cy="165" r="25"/><circle cx="580" cy="165" r="14"/><path d="M580 165l9-8"/></g><g fill="#155866" stroke="#ff8f7d" stroke-width="3"><circle cx="674" cy="165" r="20"/><circle cx="710" cy="165" r="20"/><path d="M694 165h-4M654 158l-14-8M730 158l14-8" fill="none"/></g><path d="M787 126l-17 11-11 37 16 7 7 31h36l7-31 16-7-11-37-17-11-13 18z" fill="#154b59" stroke="#a8fff2" stroke-width="3"/><path d="M800 145v64M787 126l13 19 13-19" fill="none" stroke="#a8fff2" stroke-width="2"/><g fill="#72f1df"><circle cx="518" cy="232" r="4"/><circle cx="628" cy="96" r="4"/><circle cx="744" cy="232" r="4"/><circle cx="850" cy="122" r="4"/></g></g>
  <g><rect x="801" y="216" width="92" height="72" rx="9" fill="#152d33" stroke="#54c7c3" stroke-width="3"/><rect x="813" y="227" width="68" height="47" rx="4" fill="#073640" stroke="#53d4c8" stroke-width="2"/><path d="M818 252c13-18 20 16 31-2s17 16 28-2" fill="none" stroke="#8ffff0" stroke-width="3"/><path d="M846 288v20" stroke="#4c4436" stroke-width="6"/><rect x="817" y="306" width="62" height="10" rx="4" fill="#72543a" stroke="#c59c58" stroke-width="2"/><path d="M792 296l18-30-16-29" fill="none" stroke="#5b574d" stroke-width="6"/><ellipse cx="792" cy="236" rx="14" ry="10" fill="#e3ad4c" stroke="#61451f" stroke-width="2"/></g>
  <g filter="url(#glow)"><g transform="translate(535 365)"><ellipse rx="54" ry="23" fill="#103d45" stroke="#6ce9d9" stroke-width="3"/><ellipse rx="43" ry="15" fill="#081f25" stroke="#2f8790" stroke-width="2"/><rect x="-7" y="-35" width="14" height="18" rx="3" fill="#38545a" stroke="#b5fff2" stroke-width="2"/><rect x="-7" y="17" width="14" height="18" rx="3" fill="#38545a" stroke="#b5fff2" stroke-width="2"/><circle r="19" fill="#0b525c" stroke="#b5fff2" stroke-width="3"/><circle r="10" fill="none" stroke="#b5fff2" stroke-width="2"/></g><g transform="translate(650 365)"><ellipse rx="54" ry="23" fill="#103d45" stroke="#6ce9d9" stroke-width="3"/><ellipse rx="43" ry="15" fill="#081f25" stroke="#2f8790" stroke-width="2"/><circle cx="-15" cy="-15" r="12" fill="#a82c3a" stroke="#ff9b88" stroke-width="3"/><circle cx="15" cy="-15" r="12" fill="#a82c3a" stroke="#ff9b88" stroke-width="3"/><path d="M-3-15h6M-27-17l-12-6M27-17l12-6" fill="none" stroke="#ff9b88" stroke-width="3"/></g><g transform="translate(760 365)"><ellipse rx="54" ry="23" fill="#103d45" stroke="#6ce9d9" stroke-width="3"/><ellipse rx="43" ry="15" fill="#081f25" stroke="#2f8790" stroke-width="2"/><path d="M-10-36l-25 16-12 38 17 7 7 28h46l7-28 17-7-12-38-25-16L0-20z" fill="#143b58" stroke="#8ff4e7" stroke-width="2"/><path d="M0-20v68M-10-36L0-20 10-36" fill="none" stroke="#8ff4e7" stroke-width="2"/></g></g>
  <g><rect x="890" y="74" width="124" height="392" rx="16" fill="#1f2a2c" stroke="#0b1315" stroke-width="8"/><rect x="904" y="89" width="96" height="360" rx="12" fill="url(#door)" stroke="#50d9cc" stroke-width="4"/><rect x="922" y="116" width="60" height="88" rx="12" fill="#09252c" stroke="#2c8590" stroke-width="3"/><rect x="922" y="225" width="60" height="137" rx="12" fill="#0a3037" stroke="#2c8590" stroke-width="3"/><rect x="964" y="268" width="38" height="63" rx="9" fill="#111c20" stroke="#d6a33b" stroke-width="4"/><circle cx="983" cy="288" r="10" fill="#4ff6dd"/><rect x="928" y="411" width="50" height="10" rx="5" fill="#4ce5d3"/><circle cx="952" cy="92" r="12" fill="#e5a23d" stroke="#6b431b" stroke-width="3"/></g>
  <g fill="#50d8ce" opacity=".55"><rect x="242" y="523" width="37" height="5" rx="2"/><rect x="442" y="523" width="37" height="5" rx="2"/><rect x="642" y="523" width="37" height="5" rx="2"/><rect x="842" y="523" width="37" height="5" rx="2"/></g>
</svg>
