<svg xmlns="http://www.w3.org/2000/svg" width="1280" height="256" viewBox="0 0 1280 256">
  <rect width="1280" height="256" fill="#f4d58d"/>
  <g>
    <rect x="46" y="32" width="164" height="190" rx="16" fill="#f8edc8" stroke="#5d3b25" stroke-width="8"/>
    <rect x="70" y="58" width="116" height="18" rx="5" fill="#6f4a2d"/>
    <rect x="70" y="94" width="116" height="10" rx="4" fill="#9a7044"/>
    <rect x="70" y="118" width="96" height="10" rx="4" fill="#9a7044"/>
    <rect x="70" y="142" width="116" height="10" rx="4" fill="#9a7044"/>
    <path d="M82 188c22-22 59-22 82 0" fill="none" stroke="#d69a34" stroke-width="10" stroke-linecap="round"/>
    <circle cx="128" cy="174" r="18" fill="#2f5733"/>
    <text x="128" y="247" font-family="Verdana, sans-serif" font-size="18" font-weight="700" text-anchor="middle" fill="#3b281c">report</text>
  </g>
  <g transform="translate(256 0)">
    <ellipse cx="128" cy="160" rx="84" ry="38" fill="#6c4328" opacity="0.3"/>
    <ellipse cx="128" cy="136" rx="92" ry="56" fill="#9f602f" stroke="#53321f" stroke-width="8"/>
    <ellipse cx="128" cy="126" rx="66" ry="34" fill="#ffe3a0"/>
    <path d="M88 122c20-28 53-26 79 0c-16 26-58 31-79 0z" fill="#be3c2f"/>
    <path d="M116 96l14 34l-26-20l36 0l-28 20z" fill="#f7d6bb" opacity="0.8"/>
    <text x="128" y="247" font-family="Verdana, sans-serif" font-size="18" font-weight="700" text-anchor="middle" fill="#3b281c">meat</text>
  </g>
  <g transform="translate(512 0)">
    <rect x="56" y="58" width="144" height="108" rx="18" fill="#26383f" stroke="#13242a" stroke-width="8"/>
    <rect x="80" y="36" width="54" height="28" rx="8" fill="#314950" stroke="#13242a" stroke-width="6"/>
    <circle cx="128" cy="112" r="38" fill="#10191d" stroke="#6fb1b8" stroke-width="8"/>
    <circle cx="128" cy="112" r="20" fill="#89d5d9"/>
    <circle cx="118" cy="102" r="7" fill="#eefbf1"/>
    <rect x="174" y="78" width="14" height="18" rx="4" fill="#f0c55a"/>
    <path d="M88 188c38-24 73 28 106-2" fill="none" stroke="#405b37" stroke-width="12" stroke-linecap="round"/>
    <text x="128" y="247" font-family="Verdana, sans-serif" font-size="18" font-weight="700" text-anchor="middle" fill="#3b281c">camera</text>
  </g>
  <g transform="translate(768 0)">
    <rect x="38" y="44" width="180" height="128" rx="14" fill="#5e4027" stroke="#2f2117" stroke-width="8"/>
    <rect x="58" y="64" width="140" height="88" rx="8" fill="#f8edc8"/>
    <rect x="78" y="84" width="100" height="13" rx="4" fill="#6f4a2d"/>
    <rect x="78" y="112" width="84" height="10" rx="4" fill="#9a7044"/>
    <rect x="78" y="132" width="104" height="10" rx="4" fill="#9a7044"/>
    <path d="M76 188h104" stroke="#3b281c" stroke-width="12" stroke-linecap="round"/>
    <path d="M96 174l-14 42M160 174l14 42" stroke="#3b281c" stroke-width="10" stroke-linecap="round"/>
    <text x="128" y="247" font-family="Verdana, sans-serif" font-size="18" font-weight="700" text-anchor="middle" fill="#3b281c">board</text>
  </g>
  <g transform="translate(1024 0)">
    <ellipse cx="128" cy="178" rx="96" ry="32" fill="#5f4d3d" opacity="0.26"/>
    <path d="M50 154c5-47 37-86 82-87c45-1 75 37 77 84c-34 24-112 26-159 3z" fill="#8b806f" stroke="#4b443c" stroke-width="8"/>
    <path d="M82 136c28-24 73-24 100 2" fill="none" stroke="#5c6f3c" stroke-width="13" stroke-linecap="round"/>
    <circle cx="77" cy="136" r="9" fill="#5c6f3c"/>
    <circle cx="74" cy="133" r="2" fill="#f8edc8"/>
    <path d="M56 164c42 12 104 11 148-3" fill="none" stroke="#c0b6a5" stroke-width="7" stroke-linecap="round" opacity="0.9"/>
    <text x="128" y="247" font-family="Verdana, sans-serif" font-size="18" font-weight="700" text-anchor="middle" fill="#3b281c">habitat</text>
  </g>
</svg>
